<mxfile host="app.diagrams.net" modified="2023-07-31T15:14:56.052Z" agent="Mozilla/5.0 (Windows NT 10.0; Win64; x64) AppleWebKit/537.36 (KHTML, like Gecko) Chrome/115.0.0.0 Safari/537.36" etag="Nhz-6dQmgalWjBcTyGYw" version="21.6.6" type="device">
  <diagram name="Page-1" id="QvM2PMmGL1-Jmv-G0cOI">
    <mxGraphModel dx="1376" dy="768" grid="1" gridSize="10" guides="1" tooltips="1" connect="1" arrows="1" fold="1" page="1" pageScale="1" pageWidth="850" pageHeight="1100" math="0" shadow="0">
      <root>
        <mxCell id="0" />
        <mxCell id="1" parent="0" />
        <mxCell id="ybib_nLOk0rvstGrFChK-2" style="edgeStyle=orthogonalEdgeStyle;rounded=0;orthogonalLoop=1;jettySize=auto;html=1;" edge="1" parent="1" source="ybib_nLOk0rvstGrFChK-1" target="ybib_nLOk0rvstGrFChK-3">
          <mxGeometry relative="1" as="geometry">
            <mxPoint x="250" y="260" as="targetPoint" />
          </mxGeometry>
        </mxCell>
        <mxCell id="ybib_nLOk0rvstGrFChK-1" value="" style="ellipse;whiteSpace=wrap;html=1;" vertex="1" parent="1">
          <mxGeometry x="190" y="110" width="120" height="80" as="geometry" />
        </mxCell>
        <mxCell id="ybib_nLOk0rvstGrFChK-5" style="edgeStyle=orthogonalEdgeStyle;rounded=0;orthogonalLoop=1;jettySize=auto;html=1;" edge="1" parent="1" source="ybib_nLOk0rvstGrFChK-3" target="ybib_nLOk0rvstGrFChK-6">
          <mxGeometry relative="1" as="geometry">
            <mxPoint x="250" y="370" as="targetPoint" />
          </mxGeometry>
        </mxCell>
        <mxCell id="ybib_nLOk0rvstGrFChK-3" value="call&amp;nbsp;l_cc_turnClimateControlOFF" style="rounded=1;whiteSpace=wrap;html=1;" vertex="1" parent="1">
          <mxGeometry x="140" y="230" width="220" height="50" as="geometry" />
        </mxCell>
        <mxCell id="ybib_nLOk0rvstGrFChK-4" value="Function: l_cc_turnClimateControlOFF&#xa;&#xa;&#xa;&#xa;Description:&#xa;    This function handles all the function calls which turn every buttons off.&#xa;    All the buttons are set to off.&#xa;    Ac, Auto, front and rear defrost are set to off.&#xa;    The state of the buttons is written to the climateButtons.txt file.&#xa;&#xa;&#xa;&#xa;Parameters In:&#xa;    None&#xa;&#xa;&#xa;&#xa;Parameters Out:&#xa;    None&#xa;&#xa;&#xa;&#xa;Return Value:&#xa;    None" style="text;whiteSpace=wrap;" vertex="1" parent="1">
          <mxGeometry x="440" width="410" height="370" as="geometry" />
        </mxCell>
        <mxCell id="ybib_nLOk0rvstGrFChK-7" style="edgeStyle=orthogonalEdgeStyle;rounded=0;orthogonalLoop=1;jettySize=auto;html=1;" edge="1" parent="1" source="ybib_nLOk0rvstGrFChK-14" target="ybib_nLOk0rvstGrFChK-18">
          <mxGeometry relative="1" as="geometry">
            <mxPoint x="250" y="740" as="targetPoint" />
          </mxGeometry>
        </mxCell>
        <mxCell id="ybib_nLOk0rvstGrFChK-6" value="turn off auto button" style="rounded=1;whiteSpace=wrap;html=1;" vertex="1" parent="1">
          <mxGeometry x="140" y="340" width="220" height="40" as="geometry" />
        </mxCell>
        <mxCell id="ybib_nLOk0rvstGrFChK-9" value="" style="edgeStyle=orthogonalEdgeStyle;rounded=0;orthogonalLoop=1;jettySize=auto;html=1;" edge="1" parent="1" source="ybib_nLOk0rvstGrFChK-6" target="ybib_nLOk0rvstGrFChK-8">
          <mxGeometry relative="1" as="geometry">
            <mxPoint x="250" y="770" as="targetPoint" />
            <mxPoint x="250" y="380" as="sourcePoint" />
          </mxGeometry>
        </mxCell>
        <mxCell id="ybib_nLOk0rvstGrFChK-8" value="turn off ac button" style="rounded=1;whiteSpace=wrap;html=1;" vertex="1" parent="1">
          <mxGeometry x="140" y="410" width="220" height="40" as="geometry" />
        </mxCell>
        <mxCell id="ybib_nLOk0rvstGrFChK-11" value="" style="edgeStyle=orthogonalEdgeStyle;rounded=0;orthogonalLoop=1;jettySize=auto;html=1;" edge="1" parent="1" source="ybib_nLOk0rvstGrFChK-8" target="ybib_nLOk0rvstGrFChK-10">
          <mxGeometry relative="1" as="geometry">
            <mxPoint x="250" y="760" as="targetPoint" />
            <mxPoint x="250" y="450" as="sourcePoint" />
          </mxGeometry>
        </mxCell>
        <mxCell id="ybib_nLOk0rvstGrFChK-10" value="turn off recirculation button" style="rounded=1;whiteSpace=wrap;html=1;" vertex="1" parent="1">
          <mxGeometry x="140" y="480" width="220" height="40" as="geometry" />
        </mxCell>
        <mxCell id="ybib_nLOk0rvstGrFChK-13" value="" style="edgeStyle=orthogonalEdgeStyle;rounded=0;orthogonalLoop=1;jettySize=auto;html=1;" edge="1" parent="1" source="ybib_nLOk0rvstGrFChK-10" target="ybib_nLOk0rvstGrFChK-12">
          <mxGeometry relative="1" as="geometry">
            <mxPoint x="250" y="750" as="targetPoint" />
            <mxPoint x="250" y="520" as="sourcePoint" />
          </mxGeometry>
        </mxCell>
        <mxCell id="ybib_nLOk0rvstGrFChK-12" value="turn off rear_on button" style="rounded=1;whiteSpace=wrap;html=1;" vertex="1" parent="1">
          <mxGeometry x="140" y="550" width="220" height="40" as="geometry" />
        </mxCell>
        <mxCell id="ybib_nLOk0rvstGrFChK-15" value="" style="edgeStyle=orthogonalEdgeStyle;rounded=0;orthogonalLoop=1;jettySize=auto;html=1;" edge="1" parent="1" source="ybib_nLOk0rvstGrFChK-12" target="ybib_nLOk0rvstGrFChK-14">
          <mxGeometry relative="1" as="geometry">
            <mxPoint x="250" y="750" as="targetPoint" />
            <mxPoint x="250" y="590" as="sourcePoint" />
          </mxGeometry>
        </mxCell>
        <mxCell id="ybib_nLOk0rvstGrFChK-14" value="turn off front_on button" style="rounded=1;whiteSpace=wrap;html=1;" vertex="1" parent="1">
          <mxGeometry x="140" y="620" width="220" height="40" as="geometry" />
        </mxCell>
        <mxCell id="ybib_nLOk0rvstGrFChK-19" style="edgeStyle=orthogonalEdgeStyle;rounded=0;orthogonalLoop=1;jettySize=auto;html=1;" edge="1" parent="1" source="ybib_nLOk0rvstGrFChK-18" target="ybib_nLOk0rvstGrFChK-20">
          <mxGeometry relative="1" as="geometry">
            <mxPoint x="250" y="830" as="targetPoint" />
          </mxGeometry>
        </mxCell>
        <mxCell id="ybib_nLOk0rvstGrFChK-18" value="call&amp;nbsp;l_cc_runRecirculation" style="rounded=1;whiteSpace=wrap;html=1;" vertex="1" parent="1">
          <mxGeometry x="155" y="710" width="190" height="60" as="geometry" />
        </mxCell>
        <mxCell id="ybib_nLOk0rvstGrFChK-21" style="edgeStyle=orthogonalEdgeStyle;rounded=0;orthogonalLoop=1;jettySize=auto;html=1;" edge="1" parent="1" source="ybib_nLOk0rvstGrFChK-20" target="ybib_nLOk0rvstGrFChK-22">
          <mxGeometry relative="1" as="geometry">
            <mxPoint x="250" y="910" as="targetPoint" />
          </mxGeometry>
        </mxCell>
        <mxCell id="ybib_nLOk0rvstGrFChK-20" value="call&amp;nbsp;g_cc_ac_set_AC_ON_OFF with false" style="rounded=1;whiteSpace=wrap;html=1;" vertex="1" parent="1">
          <mxGeometry x="160" y="800" width="180" height="60" as="geometry" />
        </mxCell>
        <mxCell id="ybib_nLOk0rvstGrFChK-23" style="edgeStyle=orthogonalEdgeStyle;rounded=0;orthogonalLoop=1;jettySize=auto;html=1;" edge="1" parent="1" source="ybib_nLOk0rvstGrFChK-22" target="ybib_nLOk0rvstGrFChK-24">
          <mxGeometry relative="1" as="geometry">
            <mxPoint x="250" y="1000" as="targetPoint" />
          </mxGeometry>
        </mxCell>
        <mxCell id="ybib_nLOk0rvstGrFChK-22" value="call&amp;nbsp;g_cc_ac_stopAC" style="rounded=1;whiteSpace=wrap;html=1;" vertex="1" parent="1">
          <mxGeometry x="180" y="900" width="140" height="60" as="geometry" />
        </mxCell>
        <mxCell id="ybib_nLOk0rvstGrFChK-25" style="edgeStyle=orthogonalEdgeStyle;rounded=0;orthogonalLoop=1;jettySize=auto;html=1;" edge="1" parent="1" source="ybib_nLOk0rvstGrFChK-29" target="ybib_nLOk0rvstGrFChK-26">
          <mxGeometry relative="1" as="geometry">
            <mxPoint x="250" y="1300" as="targetPoint" />
          </mxGeometry>
        </mxCell>
        <mxCell id="ybib_nLOk0rvstGrFChK-24" value="call g_cc_auto_stopAuto" style="rounded=1;whiteSpace=wrap;html=1;" vertex="1" parent="1">
          <mxGeometry x="190" y="980" width="120" height="60" as="geometry" />
        </mxCell>
        <mxCell id="ybib_nLOk0rvstGrFChK-26" value="call&amp;nbsp;g_bsw_buttons_writeState" style="rounded=1;whiteSpace=wrap;html=1;" vertex="1" parent="1">
          <mxGeometry x="155" y="1260" width="190" height="60" as="geometry" />
        </mxCell>
        <mxCell id="ybib_nLOk0rvstGrFChK-28" value="" style="edgeStyle=orthogonalEdgeStyle;rounded=0;orthogonalLoop=1;jettySize=auto;html=1;" edge="1" parent="1" source="ybib_nLOk0rvstGrFChK-24" target="ybib_nLOk0rvstGrFChK-27">
          <mxGeometry relative="1" as="geometry">
            <mxPoint x="250" y="1270" as="targetPoint" />
            <mxPoint x="250" y="1040" as="sourcePoint" />
          </mxGeometry>
        </mxCell>
        <mxCell id="ybib_nLOk0rvstGrFChK-27" value="call&amp;nbsp; l_cc_frontDemist" style="rounded=1;whiteSpace=wrap;html=1;" vertex="1" parent="1">
          <mxGeometry x="190" y="1070" width="120" height="60" as="geometry" />
        </mxCell>
        <mxCell id="ybib_nLOk0rvstGrFChK-30" value="" style="edgeStyle=orthogonalEdgeStyle;rounded=0;orthogonalLoop=1;jettySize=auto;html=1;" edge="1" parent="1" source="ybib_nLOk0rvstGrFChK-27" target="ybib_nLOk0rvstGrFChK-29">
          <mxGeometry relative="1" as="geometry">
            <mxPoint x="250" y="1310" as="targetPoint" />
            <mxPoint x="250" y="1130" as="sourcePoint" />
          </mxGeometry>
        </mxCell>
        <mxCell id="ybib_nLOk0rvstGrFChK-29" value="call&amp;nbsp;l_cc_rearDemist" style="rounded=1;whiteSpace=wrap;html=1;" vertex="1" parent="1">
          <mxGeometry x="190" y="1160" width="120" height="60" as="geometry" />
        </mxCell>
      </root>
    </mxGraphModel>
  </diagram>
</mxfile>
